<?xml version="1.0" standalone="no"?>
<!DOCTYPE svg PUBLIC "-//W3C//DTD SVG 20010904//EN"
 "http://www.w3.org/TR/2001/REC-SVG-20010904/DTD/svg10.dtd">
<svg version="1.0" xmlns="http://www.w3.org/2000/svg"
 width="1280.000000pt" height="1206.000000pt" viewBox="0 0 1280.000000 1206.000000"
 preserveAspectRatio="xMidYMid meet">
<metadata>
Created by potrace 1.16, written by Peter Selinger 2001-2019
</metadata>
<g transform="translate(0.000000,1206.000000) scale(0.100000,-0.100000)"
fill="#000000" stroke="none">
<path d="M2004 12028 c-15 -18 -42 -65 -61 -105 l-33 -72 0 -2868 1 -2868 681
-600 c375 -330 1066 -939 1537 -1354 1607 -1416 2267 -1991 2285 -1991 13 0
234 188 581 494 286 253 2516 2227 3348 2964 l557 494 0 2882 0 2883 -31 46
c-51 78 -95 106 -186 117 -51 7 -561 10 -1473 8 l-1395 -3 -5 -1275 -5 -1275
-22 -40 c-25 -47 -74 -95 -123 -121 -34 -18 -84 -19 -1230 -19 -657 0 -1212 4
-1233 8 -49 10 -118 73 -149 135 l-23 47 -6 745 c-4 410 -7 982 -8 1273 l-1
527 -1489 0 -1489 0 -28 -32z"/>
<path d="M601 6307 c-120 -129 -601 -676 -601 -685 0 -5 1079 -960 2397 -2123
1318 -1163 2750 -2426 3182 -2807 l786 -693 51 3 52 3 1253 1110 c689 611
1964 1740 2834 2509 2284 2022 2245 1987 2245 2000 0 18 -654 746 -670 746
-15 0 -468 -397 -3030 -2655 -1756 -1548 -2487 -2191 -2618 -2303 l-73 -62
-117 103 c-618 546 -1368 1209 -2432 2152 -1480 1311 -2548 2255 -2885 2552
-223 196 -243 211 -279 211 -34 0 -44 -7 -95 -61z"/>
</g>
</svg>
